<svg xmlns="http://www.w3.org/2000/svg" viewBox="0 0 1280 720">
  <defs>
    <linearGradient id="chronorift-cover-bg" x1="0" x2="1" y1="1" y2="0">
      <stop offset="0%" stop-color="#04151f" />
      <stop offset="100%" stop-color="#1e4d5d" />
    </linearGradient>
    <linearGradient id="chronorift-cover-grid" x1="0" x2="1" y1="0" y2="1">
      <stop offset="0%" stop-color="#00f7ff" stop-opacity="0.4" />
      <stop offset="100%" stop-color="#ff8bd5" stop-opacity="0.4" />
    </linearGradient>
  </defs>
  <rect width="1280" height="720" fill="url(#chronorift-cover-bg)" />
  <g stroke="url(#chronorift-cover-grid)" stroke-width="1.5" opacity="0.5">
    <path d="M0 600 L1280 360" />
    <path d="M0 540 L1280 300" />
    <path d="M0 480 L1280 240" />
    <path d="M0 420 L1280 180" />
    <path d="M0 360 L1280 120" />
    <path d="M180 720 L780 0" />
    <path d="M320 720 L920 0" />
    <path d="M460 720 L1060 0" />
  </g>
  <g fill="#0f2736" opacity="0.65">
    <rect x="160" y="180" width="320" height="360" rx="28" />
    <rect x="540" y="220" width="320" height="320" rx="36" />
    <rect x="860" y="200" width="260" height="340" rx="32" />
  </g>
  <text x="150" y="530" font-family="'Audiowide', 'Orbitron', sans-serif" font-size="80" fill="#e6f6ff" letter-spacing="8">
    CHRONORIFT TACTICS
  </text>
  <text x="154" y="590" font-family="'Inter', sans-serif" font-size="26" fill="#aee7ff" letter-spacing="10">
    PHASE-BENDING COMMAND SIMULATION
  </text>
</svg>
